<mxfile host="65bd71144e" scale="1" border="10">
    <diagram id="PsLG1nvYOHh64BqABNhy" name="Page-1">
        <mxGraphModel dx="1166" dy="783" grid="1" gridSize="10" guides="1" tooltips="1" connect="1" arrows="1" fold="1" page="1" pageScale="1" pageWidth="850" pageHeight="1100" background="#ffffff" math="0" shadow="0">
            <root>
                <mxCell id="0"/>
                <mxCell id="1" parent="0"/>
                <mxCell id="75" value="" style="ellipse;shape=cloud;whiteSpace=wrap;html=1;dashed=1;strokeWidth=2;" parent="1" vertex="1">
                    <mxGeometry x="90" y="40" width="650" height="440" as="geometry"/>
                </mxCell>
                <mxCell id="76" value="&lt;b&gt;&lt;br&gt;DB&lt;/b&gt;&lt;div&gt;(sqlite)&lt;/div&gt;" style="strokeWidth=2;html=1;shape=mxgraph.flowchart.database;whiteSpace=wrap;" parent="1" vertex="1">
                    <mxGeometry x="510" y="320" width="60" height="60" as="geometry"/>
                </mxCell>
                <mxCell id="84" value="" style="edgeStyle=none;html=1;strokeWidth=3;endArrow=block;endFill=1;startArrow=block;startFill=1;" parent="1" source="78" target="82" edge="1">
                    <mxGeometry x="-0.0941" y="-21" relative="1" as="geometry">
                        <Array as="points"/>
                        <mxPoint as="offset"/>
                    </mxGeometry>
                </mxCell>
                <mxCell id="86" value="" style="edgeStyle=none;html=1;strokeWidth=3;startArrow=block;startFill=1;endArrow=block;endFill=1;dashed=1;entryX=1.103;entryY=0.321;entryDx=0;entryDy=0;entryPerimeter=0;" parent="1" source="98" target="81" edge="1">
                    <mxGeometry x="0.2922" y="-25" relative="1" as="geometry">
                        <Array as="points">
                            <mxPoint x="360" y="110"/>
                            <mxPoint x="160" y="110"/>
                        </Array>
                        <mxPoint as="offset"/>
                    </mxGeometry>
                </mxCell>
                <mxCell id="78" value="&lt;b&gt;Access Point&lt;br&gt;per gli utenti&lt;/b&gt;&lt;br&gt;(Node.js + Express.js)" style="shape=hexagon;perimeter=hexagonPerimeter2;whiteSpace=wrap;html=1;fixedSize=1;strokeWidth=2;" parent="1" vertex="1">
                    <mxGeometry x="180" y="199.99999999999997" width="120" height="80" as="geometry"/>
                </mxCell>
                <mxCell id="85" style="edgeStyle=none;html=1;strokeWidth=3;startArrow=block;startFill=1;endArrow=block;endFill=1;" parent="1" source="79" target="78" edge="1">
                    <mxGeometry relative="1" as="geometry"/>
                </mxCell>
                <mxCell id="79" value="" style="fontColor=#0066CC;verticalAlign=top;verticalLabelPosition=bottom;labelPosition=center;align=center;html=1;outlineConnect=0;fillColor=#CCCCCC;strokeColor=#6881B3;gradientColor=none;gradientDirection=north;strokeWidth=2;shape=mxgraph.networks.pc;" parent="1" vertex="1">
                    <mxGeometry x="30" y="287.72" width="100" height="70" as="geometry"/>
                </mxCell>
                <mxCell id="81" value="" style="points=[];aspect=fixed;html=1;align=center;shadow=0;dashed=0;image;image=img/lib/allied_telesis/computer_and_terminals/Smartphone.svg;" parent="1" vertex="1">
                    <mxGeometry x="80" y="130" width="30" height="65.45" as="geometry"/>
                </mxCell>
                <mxCell id="83" style="edgeStyle=none;html=1;endArrow=none;endFill=0;strokeWidth=5;" parent="1" source="82" target="76" edge="1">
                    <mxGeometry relative="1" as="geometry"/>
                </mxCell>
                <mxCell id="82" value="&lt;b&gt;Backend&lt;/b&gt;&lt;br&gt;(Javalin)" style="shape=hexagon;perimeter=hexagonPerimeter2;whiteSpace=wrap;html=1;fixedSize=1;strokeWidth=2;" parent="1" vertex="1">
                    <mxGeometry x="350" y="310" width="120" height="80" as="geometry"/>
                </mxCell>
                <mxCell id="89" value="&lt;b&gt;MQTT&lt;/b&gt;" style="edgeStyle=none;html=1;dashed=1;strokeWidth=3;startArrow=block;startFill=1;endArrow=block;endFill=1;" parent="1" source="98" target="82" edge="1">
                    <mxGeometry relative="1" as="geometry"/>
                </mxCell>
                <mxCell id="90" value="" style="image;html=1;image=img/lib/clip_art/networking/Ip_Camera_128x128.png;strokeWidth=2;" parent="1" vertex="1">
                    <mxGeometry x="740" y="170" width="70" height="70" as="geometry"/>
                </mxCell>
                <mxCell id="91" value="" style="points=[];aspect=fixed;html=1;align=center;shadow=0;dashed=0;image;image=img/lib/allied_telesis/security/DVS_Surveillance_Monitor.svg;strokeWidth=2;" parent="1" vertex="1">
                    <mxGeometry x="736.5" y="287.72" width="77" height="110" as="geometry"/>
                </mxCell>
                <mxCell id="92" style="edgeStyle=none;html=1;strokeWidth=3;startArrow=block;startFill=1;endArrow=block;endFill=1;dashed=1;" parent="1" source="91" target="119" edge="1">
                    <mxGeometry relative="1" as="geometry">
                        <mxPoint x="204.93367254224972" y="279.86734508449945" as="sourcePoint"/>
                        <mxPoint x="110" y="342.7838709677419" as="targetPoint"/>
                    </mxGeometry>
                </mxCell>
                <mxCell id="104" value="&lt;b&gt;MQTT&lt;/b&gt;" style="edgeLabel;html=1;align=center;verticalAlign=middle;resizable=0;points=[];rotation=20;" parent="92" vertex="1" connectable="0">
                    <mxGeometry x="-0.1469" y="-2" relative="1" as="geometry">
                        <mxPoint x="-11" y="-16" as="offset"/>
                    </mxGeometry>
                </mxCell>
                <mxCell id="93" value="" style="edgeStyle=none;html=1;strokeWidth=3;startArrow=block;startFill=1;endArrow=block;endFill=1;dashed=1;" parent="1" source="90" target="119" edge="1">
                    <mxGeometry x="-1" y="-83" relative="1" as="geometry">
                        <mxPoint x="750" y="342.6952141057934" as="sourcePoint"/>
                        <mxPoint x="636.5234375" y="276.953125" as="targetPoint"/>
                        <mxPoint x="27" y="-1" as="offset"/>
                    </mxGeometry>
                </mxCell>
                <mxCell id="106" value="&lt;b&gt;MQTT&lt;/b&gt;" style="edgeLabel;html=1;align=center;verticalAlign=middle;resizable=0;points=[];rotation=349;" parent="93" vertex="1" connectable="0">
                    <mxGeometry x="-0.3402" y="1" relative="1" as="geometry">
                        <mxPoint x="-22" y="-11" as="offset"/>
                    </mxGeometry>
                </mxCell>
                <mxCell id="94" value="&lt;b&gt;API REST&lt;/b&gt;" style="text;html=1;align=center;verticalAlign=middle;resizable=0;points=[];autosize=1;strokeColor=none;fillColor=none;rotation=31;" parent="1" vertex="1">
                    <mxGeometry x="291" y="272" width="80" height="30" as="geometry"/>
                </mxCell>
                <mxCell id="98" value="&lt;b style=&quot;border-color: var(--border-color);&quot;&gt;MQTT broker&lt;/b&gt;&lt;br style=&quot;border-color: var(--border-color);&quot;&gt;(mosquitto)" style="whiteSpace=wrap;html=1;strokeWidth=2;dashed=1;" parent="1" vertex="1">
                    <mxGeometry x="350" y="140" width="120" height="60" as="geometry"/>
                </mxCell>
                <mxCell id="100" style="edgeStyle=none;html=1;dashed=1;strokeWidth=3;startArrow=block;startFill=1;endArrow=block;endFill=1;exitX=1;exitY=0.5;exitDx=0;exitDy=0;" parent="1" source="98" target="119" edge="1">
                    <mxGeometry relative="1" as="geometry">
                        <mxPoint x="240.83333333333326" y="102" as="sourcePoint"/>
                        <mxPoint x="392.2222222222222" y="320" as="targetPoint"/>
                        <Array as="points">
                            <mxPoint x="530" y="170"/>
                        </Array>
                    </mxGeometry>
                </mxCell>
                <mxCell id="102" value="&lt;b&gt;MQTT&lt;/b&gt;" style="edgeLabel;html=1;align=center;verticalAlign=middle;resizable=0;points=[];" parent="100" vertex="1" connectable="0">
                    <mxGeometry x="0.2249" y="3" relative="1" as="geometry">
                        <mxPoint x="-2" y="-27" as="offset"/>
                    </mxGeometry>
                </mxCell>
                <mxCell id="107" value="&lt;b&gt;MQTT&lt;/b&gt;" style="text;html=1;align=center;verticalAlign=middle;resizable=0;points=[];autosize=1;strokeColor=none;fillColor=none;rotation=0;" parent="1" vertex="1">
                    <mxGeometry x="200" y="87" width="60" height="30" as="geometry"/>
                </mxCell>
                <mxCell id="108" value="" style="edgeStyle=none;html=1;strokeWidth=3;startArrow=block;startFill=1;endArrow=block;endFill=1;entryX=1.087;entryY=0.896;entryDx=0;entryDy=0;entryPerimeter=0;" parent="1" source="78" target="81" edge="1">
                    <mxGeometry x="0.2922" y="-25" relative="1" as="geometry">
                        <mxPoint x="385" y="150" as="sourcePoint"/>
                        <mxPoint x="120" y="122.55816326530623" as="targetPoint"/>
                        <Array as="points"/>
                        <mxPoint as="offset"/>
                    </mxGeometry>
                </mxCell>
                <mxCell id="109" value="sensori" style="text;html=1;align=center;verticalAlign=middle;resizable=0;points=[];autosize=1;strokeColor=none;fillColor=none;" parent="1" vertex="1">
                    <mxGeometry x="745" y="232.72" width="60" height="30" as="geometry"/>
                </mxCell>
                <mxCell id="110" value="monitor" style="text;html=1;align=center;verticalAlign=middle;resizable=0;points=[];autosize=1;strokeColor=none;fillColor=none;" parent="1" vertex="1">
                    <mxGeometry x="736.5" y="390" width="70" height="30" as="geometry"/>
                </mxCell>
                <mxCell id="111" value="mobile" style="text;html=1;align=center;verticalAlign=middle;resizable=0;points=[];autosize=1;strokeColor=none;fillColor=none;" parent="1" vertex="1">
                    <mxGeometry x="65" y="190" width="60" height="30" as="geometry"/>
                </mxCell>
                <mxCell id="112" value="PC /&amp;nbsp;&lt;span style=&quot;background-color: transparent;&quot;&gt;totem&lt;/span&gt;" style="text;html=1;align=center;verticalAlign=middle;resizable=0;points=[];autosize=1;strokeColor=none;fillColor=none;" parent="1" vertex="1">
                    <mxGeometry x="50" y="357.72" width="80" height="30" as="geometry"/>
                </mxCell>
                <mxCell id="115" value="" style="verticalLabelPosition=bottom;aspect=fixed;html=1;shape=mxgraph.salesforce.bots;" parent="1" vertex="1">
                    <mxGeometry x="745" y="440" width="60" height="57" as="geometry"/>
                </mxCell>
                <mxCell id="116" value="MWbot" style="text;html=1;align=center;verticalAlign=middle;resizable=0;points=[];autosize=1;strokeColor=none;fillColor=none;" parent="1" vertex="1">
                    <mxGeometry x="741.5" y="497" width="60" height="30" as="geometry"/>
                </mxCell>
                <mxCell id="117" style="edgeStyle=none;html=1;strokeWidth=3;startArrow=block;startFill=1;endArrow=block;endFill=1;dashed=1;exitX=0.017;exitY=0.28;exitDx=0;exitDy=0;exitPerimeter=0;" parent="1" source="115" target="119" edge="1">
                    <mxGeometry relative="1" as="geometry">
                        <mxPoint x="747" y="335" as="sourcePoint"/>
                        <mxPoint x="629" y="280" as="targetPoint"/>
                    </mxGeometry>
                </mxCell>
                <mxCell id="118" value="&lt;b&gt;MQTT&lt;/b&gt;" style="edgeLabel;html=1;align=center;verticalAlign=middle;resizable=0;points=[];rotation=46;" parent="117" vertex="1" connectable="0">
                    <mxGeometry x="-0.1469" y="-2" relative="1" as="geometry">
                        <mxPoint x="3" y="-16" as="offset"/>
                    </mxGeometry>
                </mxCell>
                <mxCell id="119" value="" style="ellipse;fillColor=strokeColor;html=1;" parent="1" vertex="1">
                    <mxGeometry x="555" y="232.72000000000003" width="30" height="30" as="geometry"/>
                </mxCell>
            </root>
        </mxGraphModel>
    </diagram>
</mxfile>
